<?xml version="1.0" encoding="UTF-8" standalone="no"?>
<svg width="16px" height="16px" viewBox="0 0 16 16" version="1.1" xmlns="http://www.w3.org/2000/svg" xmlns:xlink="http://www.w3.org/1999/xlink">
    <!-- Generator: Sketch 48.2 (47327) - http://www.bohemiancoding.com/sketch -->
    <title>Jar</title>
    <desc>Created with Sketch.</desc>
    <defs></defs>
    <g id="Page-1" stroke="none" stroke-width="1" fill="none" fill-rule="evenodd">
        <g id="Jar">
            <g id="Page-1" transform="translate(3.000000, 2.000000)">
                <path d="M-0.0003,6.9998 L-0.0003,12.9998 L4.9997,12.9998 L4.9997,9.0008 L3.0007,6.9998 L-0.0003,6.9998 Z M0.9997,7.9998 L2.9967,7.9998 L2.9967,9.0008 L4.0007,9.0008 L4.0007,11.9998 L0.9997,11.9998 L0.9997,7.9998 Z" id="Fill-3" fill="#C5C5C5"></path>
                <g id="Group-8" transform="translate(1.000000, 0.000000)">
                    <path d="M7,3.1837 L7,0.9997 L2,0.9997 L2,3.2447 C0.932,3.7037 0.184,4.7637 0.184,5.9997 L1.184,5.9997 C1.184,5.2007 1.659,4.4797 2.395,4.1627 L3,3.9027 L3,3.2447 L3,1.9997 L6,1.9997 L6,3.1837 L6,3.8897 L6.665,4.1257 C7.463,4.4097 8,5.1627 8,5.9997 L8,10.9997 L5,10.9997 L5,11.9997 L8,11.9997 C8.552,11.9997 9,11.5527 9,10.9997 L9,5.9997 C9,4.6957 8.163,3.5967 7,3.1837" id="Fill-4" fill="#C5C5C5"></path>
                    <path d="M7,2.0001 L2,2.0001 C1.448,2.0001 1,1.5521 1,1.0001 C1,0.4481 1.448,0.0001 2,0.0001 L7,0.0001 C7.552,0.0001 8,0.4481 8,1.0001 C8,1.5521 7.552,2.0001 7,2.0001" id="Fill-6" fill="#DCB67A"></path>
                </g>
            </g>
        </g>
    </g>
</svg>