<?xml version="1.0" encoding="UTF-8" standalone="no"?>
<svg width="16px" height="16px" viewBox="0 0 16 16" version="1.1" xmlns="http://www.w3.org/2000/svg" xmlns:xlink="http://www.w3.org/1999/xlink">
    <!-- Generator: Sketch 48.2 (47327) - http://www.bohemiancoding.com/sketch -->
    <title>Project folder open</title>
    <desc>Created with Sketch.</desc>
    <defs></defs>
    <g id="Page-1" stroke="none" stroke-width="1" fill="none" fill-rule="evenodd">
        <g id="Project-folder-open">
            <g id="Page-1" transform="translate(1.000000, 2.000000)">
                <path d="M2.0002,6.9999 L2.0002,3.9999 L6.0002,3.9999 L7.0002,1.9999 L10.9952,1.9999 L10.9952,0.9999 L6.5002,0.9999 L5.5002,2.9999 L2.0002,2.9999 C2.2362,2.9999 1.0002,2.9999 1.0002,3.9999 L1.0002,6.9999 L0.0002,6.9999 L2.0002,11.9999 L13.0002,11.9999 L10.0002,6.9999 L2.0002,6.9999 Z" id="Fill-6" fill="#DCB67A"></path>
                <path d="M14.0002,1.9994 L14.0002,2.3604 C14.0002,3.1564 13.7612,3.7994 13.2912,4.2714 C13.2022,4.3604 13.1012,4.4334 13.0002,4.5054 L13.0002,11.9834154 C13.0002,11.9834154 14.0002,11.9994 14.0002,10.9994 L14.0002,1.9994 Z" id="Fill-8" fill="#DCB67A"></path>
                <path d="M12.5827,3.5649 C12.8607,3.2859 12.9997,2.8849 12.9997,2.3609 L12.9997,-0.0001 L11.9947,-0.0001 L11.9947,2.3259 C11.9947,2.9229 11.7647,3.2209 11.3047,3.2209 C11.0907,3.2209 10.8967,3.1639 10.7247,3.0489 L10.7247,3.8759 C10.9247,3.9469 11.1417,3.9819 11.3767,3.9819 C11.9037,3.9819 12.3057,3.8429 12.5827,3.5649" id="Fill-10" fill="#F36406"></path>
            </g>
        </g>
    </g>
</svg>