<?xml version="1.0" encoding="utf-8"?>
<!-- Generator: Adobe Illustrator 22.1.0, SVG Export Plug-In . SVG Version: 6.00 Build 0)  -->
<svg version="1.1" id="图层_1" xmlns="http://www.w3.org/2000/svg" xmlns:xlink="http://www.w3.org/1999/xlink" x="0px" y="0px"
	 viewBox="0 0 16 16" style="enable-background:new 0 0 16 16;" xml:space="preserve">
<style type="text/css">
	.st0{fill:#F6F6F6;fill-opacity:0;}
	.st1{fill-rule:evenodd;clip-rule:evenodd;fill:#F6F6F6;}
	.st2{fill-rule:evenodd;clip-rule:evenodd;fill:#424242;}
	.st3{fill-rule:evenodd;clip-rule:evenodd;fill:#F06421;}
</style>
<path id="canvas" class="st0" d="M16,16H0V0h16V16z"/>
<path id="iconBg_1_" class="st1" d="M13,3.6c0-0.1,0-0.2,0-0.3V0h-3v1H2v14h12V4.6L13,3.6z"/>
<g id="colorImportance_1_">
	<path class="st2" d="M10.4,6c-0.3,0-0.7-0.1-1-0.2L9,5.7V6h3v7H4V3h6V2.3L9.6,2L3,2c0,8,0,12,0,12h10l0-1V5l-0.3-0.3
		c-0.1,0.2-0.2,0.4-0.4,0.6C11.8,5.7,11.2,6,10.4,6z"/>
	<path class="st3" d="M11.6,4.6C11.9,4.3,12,3.9,12,3.4V1h-1v2.3c0,0.6-0.2,0.9-0.7,0.9c-0.2,0-0.4-0.1-0.6-0.2v0.8
		C9.9,4.9,10.1,5,10.4,5C10.9,5,11.3,4.8,11.6,4.6"/>
</g>
</svg>
