<?xml version="1.0" encoding="utf-8"?>
<!-- Generator: Adobe Illustrator 22.1.0, SVG Export Plug-In . SVG Version: 6.00 Build 0)  -->
<svg version="1.1" id="图层_1" xmlns="http://www.w3.org/2000/svg" xmlns:xlink="http://www.w3.org/1999/xlink" x="0px" y="0px"
	 viewBox="0 0 16 16" style="enable-background:new 0 0 16 16;" xml:space="preserve">
<style type="text/css">
	.st0{fill:#F6F6F6;fill-opacity:0;}
	.st1{fill:#F6F6F6;}
	.st2{fill:#424242;}
	.st3{fill:#F0EFF1;}
</style>
<path id="canvas" class="st0" d="M16,16H0V0h16V16z"/>
<polygon id="iconBg" class="st1" points="11,2 11,1 5,1 5,2 0,2 0,15 16,15 16,2 "/>
<path id="colorImportance" class="st2" d="M1,14h4V3H1V14z M11,14h4V3h-4V14z M6,14h4V2H6V14z"/>
<rect x="2" y="12" class="st3" width="2" height="1"/>
<rect x="2" y="10" class="st3" width="2" height="1"/>
<rect x="2" y="4" class="st3" width="2" height="2"/>
<rect x="12" y="12" class="st3" width="2" height="1"/>
<rect x="12" y="10" class="st3" width="2" height="1"/>
<rect x="12" y="4" class="st3" width="2" height="2"/>
<rect x="7" y="12" class="st3" width="2" height="1"/>
<rect x="7" y="10" class="st3" width="2" height="1"/>
<rect x="7" y="3" class="st3" width="2" height="1"/>
</svg>
