<?xml version="1.0" encoding="UTF-8" standalone="no"?>
<svg width="16px" height="16px" viewBox="0 0 16 16" version="1.1" xmlns="http://www.w3.org/2000/svg" xmlns:xlink="http://www.w3.org/1999/xlink">
    <!-- Generator: Sketch 48.2 (47327) - http://www.bohemiancoding.com/sketch -->
    <title>Package</title>
    <desc>Created with Sketch.</desc>
    <defs></defs>
    <g id="Page-1" stroke="none" stroke-width="1" fill="none" fill-rule="evenodd">
        <g id="Package" fill="#DCB67A">
            <g id="Page-1" transform="translate(2.000000, 0.000000)">
                <path d="M7.7929,-0.0002 L5.9429,3.4998 L4.1149,0.0488 L1.8219,2.1248 L3.7249,3.2188 L4.8429,4.0008 L0.9429,4.0008 L0.9429,13.9998 L10.9429,13.9998 L10.9429,4.0008 L7.1109,4.0008 L8.2559,3.2498 L10.1439,2.0498 L7.7929,-0.0002 Z M6.9429,7.9998 L9.9429,7.9998 L9.9429,4.9998 L6.9429,4.9998 L6.9429,7.9998 Z M1.9429,7.9998 L4.9439,7.9998 L4.9439,4.9998 L1.9429,4.9998 L1.9429,7.9998 Z M6.9429,13.0008 L9.9429,13.0008 L9.9429,9.9998 L6.9429,9.9998 L6.9429,13.0008 Z M1.9429,13.0008 L4.9439,13.0008 L4.9439,9.9998 L1.9429,9.9998 L1.9429,13.0008 Z" id="Fill-3"></path>
            </g>
        </g>
    </g>
</svg>