<?xml version="1.0" encoding="utf-8"?>
<!-- Generator: Adobe Illustrator 22.1.0, SVG Export Plug-In . SVG Version: 6.00 Build 0)  -->
<svg version="1.1" id="图层_1" xmlns="http://www.w3.org/2000/svg" xmlns:xlink="http://www.w3.org/1999/xlink" x="0px" y="0px"
	 viewBox="0 0 16 16" style="enable-background:new 0 0 16 16;" xml:space="preserve">
<style type="text/css">
	.st0{fill:#F6F6F6;}
	.st1{fill-rule:evenodd;clip-rule:evenodd;fill:#C27D1A;}
	.st2{fill-rule:evenodd;clip-rule:evenodd;fill:#F0EFF1;}
</style>
<g>
	<polygon class="st0" points="8,2.4 6.7,0 5.8,0 2.2,3.3 3.4,4 2,4 2,16 14,16 14,4 12.6,4 13.9,3.2 10.2,0 9.2,0 	"/>
</g>
<polygon class="st1" points="9.9,1 8,4.5 6.2,1 3.9,3.1 5.8,4.2 6.9,5 3,5 3,15 13,15 13,5 9.2,5 10.3,4.2 12.2,3 "/>
<rect x="4" y="11" class="st2" width="3" height="3"/>
<rect x="9" y="11" class="st2" width="3" height="3"/>
<rect x="4" y="6" class="st2" width="3" height="3"/>
<rect x="9" y="6" class="st2" width="3" height="3"/>
</svg>
