<?xml version="1.0" encoding="utf-8"?>
<!-- Generator: Adobe Illustrator 22.1.0, SVG Export Plug-In . SVG Version: 6.00 Build 0)  -->
<svg version="1.1" id="图层_1" xmlns="http://www.w3.org/2000/svg" xmlns:xlink="http://www.w3.org/1999/xlink" x="0px" y="0px"
	 viewBox="0 0 16 16" style="enable-background:new 0 0 16 16;" xml:space="preserve">
<style type="text/css">
	.st0{fill:#F6F6F6;fill-opacity:0;}
	.st1{fill:#F6F6F6;}
	.st2{fill:#424242;}
	.st3{fill:#DCB67A;}
	.st4{fill:#F0EFF1;}
</style>
<path id="canvas_1_" class="st0" d="M16,16H0V0h16V16z"/>
<polygon id="outline" class="st1" points="6.4,2 5.4,4 1,4 1,7.9 0,8.5 0,16 7,16 7,15 16,15 16,2 "/>
<g id="colorImportance">
	<path class="st2" d="M3.5,10L2.7,8L1,9l1.5,1H1v5h5v-5H4.5L6,9L4.4,8L3.5,10z"/>
	<g>
		<polygon class="st3" points="7,9 7,9.5 7,14 14,14 11,9 		"/>
		<path class="st3" d="M7,3L6,5H2v2.4l1-0.6V6h4l1-2h6v10c0,0,0.3,0,1,0V3H7z"/>
	</g>
</g>
<rect x="2" y="13" class="st4" width="1" height="1"/>
<rect x="4" y="13" class="st4" width="1" height="1"/>
<rect x="2" y="11" class="st4" width="1" height="1"/>
<polygon class="st4" points="4,11 4,11 5,11 5,12 4,12 4,12 "/>
</svg>
