<?xml version="1.0" encoding="utf-8"?>
<!-- Generator: Adobe Illustrator 22.1.0, SVG Export Plug-In . SVG Version: 6.00 Build 0)  -->
<svg version="1.1" id="图层_1" xmlns="http://www.w3.org/2000/svg" xmlns:xlink="http://www.w3.org/1999/xlink" x="0px" y="0px"
	 viewBox="0 0 16 16" style="enable-background:new 0 0 16 16;" xml:space="preserve">
<style type="text/css">
	.st0{fill:#F6F6F6;fill-opacity:0;}
	.st1{fill-rule:evenodd;clip-rule:evenodd;fill:#F6F6F6;}
	.st2{fill-rule:evenodd;clip-rule:evenodd;fill:#DCB67A;}
	.st3{fill-rule:evenodd;clip-rule:evenodd;fill:#F36406;}
</style>
<path id="canvas_1_" class="st0" d="M16,16H0V0h16V16z"/>
<polygon id="outline_1_" class="st1" points="6.4,2 5.4,4 1,4 1,8 0,8 0,9.2 2.3,15 16,15 16,2 15,2 15,1 12,1 12,2 "/>
<g id="colorImportance_2_">
	<g>
		<polygon class="st2" points="3,9 3,6 7,6 8,4 12,4 12,3 7,3 6,5 2,5 2,9 1,9 3,14 14,14 11,9 		"/>
		<path class="st2" d="M14.3,6.3c-0.1,0.1-0.2,0.2-0.3,0.2V14c0,0,0.3,0,1,0V4.4C15,5.2,14.8,5.8,14.3,6.3z"/>
	</g>
	<path class="st3" d="M13.6,5.6C13.9,5.3,14,4.9,14,4.4V2h-1v2.3c0,0.6-0.2,0.9-0.7,0.9c-0.2,0-0.4-0.1-0.6-0.2v0.8
		C11.9,5.9,12.1,6,12.4,6C12.9,6,13.3,5.8,13.6,5.6"/>
</g>
</svg>
