<?xml version="1.0" encoding="utf-8"?>
<!-- Generator: Adobe Illustrator 22.1.0, SVG Export Plug-In . SVG Version: 6.00 Build 0)  -->
<svg version="1.1" id="图层_1" xmlns="http://www.w3.org/2000/svg" xmlns:xlink="http://www.w3.org/1999/xlink" x="0px" y="0px"
	 viewBox="0 0 16 16" style="enable-background:new 0 0 16 16;" xml:space="preserve">
<style type="text/css">
	.st0{fill:#F6F6F6;fill-opacity:0;}
	.st1{fill:#F6F6F6;}
	.st2{fill:#F0EFF1;}
	.st3{fill:#00539C;}
</style>
<path id="canvas" class="st0" d="M16,16H0V0h16V16z"/>
<path id="outline_3_" class="st1" d="M11.5,3c-2,0-3.6,1.3-4.2,3H5.6C5.1,5.1,4.1,4.5,3,4.5c-1.7,0-3,1.3-3,3s1.3,3,3,3
	c1.1,0,2.1-0.6,2.6-1.5h1.7c0.6,1.7,2.3,3,4.2,3C14,12,16,10,16,7.5S14,3,11.5,3z"/>
<path id="iconFg" class="st2" d="M11.5,9C10.7,9,10,8.3,10,7.5S10.7,6,11.5,6C12.3,6,13,6.7,13,7.5c0,0,0,0,0,0
	C13,8.3,12.3,9,11.5,9z"/>
<path id="iconBg_3_" class="st3" d="M11.5,4C9.7,4,8.3,5.3,8.1,7H4.9C4.7,6.1,3.9,5.5,3,5.5c-1.1,0-2,0.9-2,2s0.9,2,2,2
	c0.9,0,1.7-0.6,1.9-1.5h3.1c0.2,1.7,1.7,3,3.4,3c1.9,0,3.5-1.6,3.5-3.5S13.4,4,11.5,4z M11.5,9C10.7,9,10,8.3,10,7.5S10.7,6,11.5,6
	S13,6.7,13,7.5S12.3,9,11.5,9z"/>
</svg>
