<?xml version="1.0" encoding="utf-8"?>
<!-- Generator: Adobe Illustrator 22.1.0, SVG Export Plug-In . SVG Version: 6.00 Build 0)  -->
<svg version="1.1" id="图层_1" xmlns="http://www.w3.org/2000/svg" xmlns:xlink="http://www.w3.org/1999/xlink" x="0px" y="0px"
	 viewBox="0 0 16 16" style="enable-background:new 0 0 16 16;" xml:space="preserve">
<style type="text/css">
	.st0{fill:#F6F6F6;}
	.st1{fill:#F6F6F6;fill-opacity:0;}
	.st2{fill:#424242;}
	.st3{fill:#F0EFF1;}
	.st4{fill:#00539C;}
</style>
<g id="outline_2_">
	<path class="st0" d="M11,3v0.9L8.8,2.8L5,4.7V3H0v10h5v-1.8l2.2,1.1l3.8-1.9V13h5V3H11z M11.7,10l0.7-0.4L13,9.4V10h-1H11.7z"/>
</g>
<path id="canvas" class="st1" d="M16,16H0V0h16V16z"/>
<path id="iconBg" class="st2" d="M2,5v6h2v1H1V4h3v1H2z M12,11v1h3V4h-3v1h2v6H12z"/>
<path id="iconFg" class="st3" d="M7.2,7.2L5.6,6.4l3.2-1.6l1.6,0.8L7.2,7.2z"/>
<path id="colorImportance" class="st4" d="M8.8,4L4,6.4v3.2l3.2,1.6L12,8.7V5.6L8.8,4z M7.2,7.2L5.6,6.4l3.2-1.6l1.6,0.8L7.2,7.2z"
	/>
</svg>
