<?xml version="1.0" encoding="UTF-8" standalone="no"?>
<svg width="16px" height="16px" viewBox="0 0 16 16" version="1.1" xmlns="http://www.w3.org/2000/svg" xmlns:xlink="http://www.w3.org/1999/xlink">
    <!-- Generator: Sketch 48.2 (47327) - http://www.bohemiancoding.com/sketch -->
    <title>  Binary file</title>
    <desc>Created with Sketch.</desc>
    <defs></defs>
    <g id="Page-1" stroke="none" stroke-width="1" fill="none" fill-rule="evenodd">
        <g id="--Binary-file">
            <g id="Page-1" transform="translate(3.000000, 1.000000)">
                <path d="M8.5826,3.5649 C8.8606,3.2859 8.9996,2.8849 8.9996,2.3609 L8.9996,-0.0001 L7.9956,-0.0001 L7.9956,2.3259 C7.9956,2.9229 7.7656,3.2209 7.3056,3.2209 C7.0906,3.2209 6.8966,3.1629 6.7246,3.0489 L6.7246,3.8759 C6.9246,3.9469 7.1416,3.9819 7.3766,3.9819 C7.9036,3.9819 8.3056,3.8429 8.5826,3.5649" id="Fill-7" fill="#F06421"></path>
                <path d="M9.2906,4.2715 C8.8196,4.7435 8.1756,4.9825 7.3766,4.9825 C7.0296,4.9825 6.6986,4.9275 6.3916,4.8185 L5.9996,4.6805 L5.9996,5.0005 L8.9996,5.0005 L8.9996,12.0005 L0.9996,12.0005 L0.9996,2.0005 L6.9956,2.0005 L6.9956,1.3155 L6.6416,1.0005 L0.9636,1.0005 C0.9636,1.0005 -0.0004,1.0005 -0.0004,2.0005 L-0.0004,12.0005 C-0.0004,13.0005 0.9646,13.0005 0.9646,13.0005 L8.9646,13.0005 C9.9646,13.0005 9.9996,12.0005 9.9996,12.0005 L9.9996,4.0005 L9.6836,3.7175 C9.5766,3.9195 9.4526,4.1095 9.2906,4.2715" id="Fill-9" fill="#656565"></path>
            </g>
        </g>
    </g>
</svg>