<?xml version="1.0" encoding="UTF-8" standalone="no"?>
<svg width="16px" height="16px" viewBox="0 0 16 16" version="1.1" xmlns="http://www.w3.org/2000/svg" xmlns:xlink="http://www.w3.org/1999/xlink">
    <!-- Generator: Sketch 48.2 (47327) - http://www.bohemiancoding.com/sketch -->
    <title>Package folder open</title>
    <desc>Created with Sketch.</desc>
    <defs></defs>
    <g id="Page-1" stroke="none" stroke-width="1" fill="none" fill-rule="evenodd">
        <g id="Package-folder-open">
            <g id="Page-1" transform="translate(1.000000, 3.000000)">
                <path d="M2.5001,7.0006 L1.7271,4.9996 L0.0001,5.9996 L1.5001,7.0006 L0.0001,7.0006 L0.0001,12.0006 L5.0001,12.0006 L5.0001,7.0006 L3.5001,7.0006 L5.0001,5.9996 L3.4241,4.9996 L2.5001,7.0006 Z M2.9991,8.0006 L3.0001,8.0006 L4.0001,8.0006 L4.0001,9.0006 L3.0001,9.0006 L2.9991,9.0006 L2.9991,8.0006 Z M1.0001,9.0006 L2.0011,9.0006 L2.0011,8.0006 L1.0001,8.0006 L1.0001,9.0006 Z M3.0001,11.0006 L4.0001,11.0006 L4.0001,10.0006 L3.0001,10.0006 L3.0001,11.0006 Z M1.0001,11.0006 L2.0011,11.0006 L2.0011,10.0006 L1.0001,10.0006 L1.0001,11.0006 Z" id="Fill-9" fill="#656565"></path>
                <polygon id="Fill-10" fill="#DCB67A" points="6.0002 6 6.0002 6.5002 6.0002 11.0002 13.0002 11.0002 10.0002 6.0002"></polygon>
                <path d="M6.5002,0.0002 L5.5002,2.0002 L2.0002,2.0002 C2.2362,2.0002 1.0002,2.0002 1.0002,3.0002 L1.0002,4.3572 L2.0002,3.7862 L2.0002,3.0002 L6.0002,3.0002 L7.0002,1.0002 L13.0002,1.0002 L13.0002,10.9842 C13.0002,10.9842 14.0002,11.0002 14.0002,10.0002 L14.0002,1.0002 C14.0002,0.0002 13.0002,0.0002 13.0002,0.0002 L6.5002,0.0002 Z" id="Fill-11" fill="#DCB67A"></path>
            </g>
        </g>
    </g>
</svg>