<?xml version="1.0" encoding="UTF-8" standalone="no"?>
<svg width="16px" height="16px" viewBox="0 0 16 16" version="1.1" xmlns="http://www.w3.org/2000/svg" xmlns:xlink="http://www.w3.org/1999/xlink">
    <!-- Generator: Sketch 48.2 (47327) - http://www.bohemiancoding.com/sketch -->
    <title>Project folder</title>
    <desc>Created with Sketch.</desc>
    <defs></defs>
    <g id="Page-1" stroke="none" stroke-width="1" fill="none" fill-rule="evenodd">
        <g id="Project-folder">
            <g id="Page-1" transform="translate(2.000000, 2.000000)">
                <path d="M11.5807,3.5648 C11.8587,3.2858 11.9977,2.8848 11.9977,2.3608 L11.9977,-0.0002 L10.9927,-0.0002 L10.9927,2.3258 C10.9927,2.9228 10.7627,3.2208 10.3027,3.2208 C10.0887,3.2208 9.8947,3.1638 9.7227,3.0488 L9.7227,3.8768 C9.9227,3.9468 10.1397,3.9818 10.3747,3.9818 C10.9017,3.9818 11.3037,3.8428 11.5807,3.5648" id="Fill-6" fill="#F36406"></path>
                <path d="M12.9981,2.3607 C12.9981,3.1567 12.7591,3.7997 12.2891,4.2717 C11.8171,4.7427 11.1741,4.9827 10.3741,4.9827 C10.0271,4.9827 9.6961,4.9277 9.3901,4.8187 L8.7221,4.5837 L8.7221,3.8767 L8.7221,3.0487 L8.7241,2.9997 L5.5081,2.9997 L6.0081,1.9997 L9.9931,1.9997 L9.9931,0.9997 L5.0081,0.9997 L4.0081,2.9997 L1.0041,2.9997 C0.4521,2.9997 0.0041,3.4477 0.0041,3.9997 L0.0041,10.9997 C0.0041,11.5517 0.4521,11.9997 1.0041,11.9997 L12.0001,11.9997 C12.5501,11.9997 13.0001,11.5497 13.0001,10.9997 L13.0001,2.3607 C13.0001,2.3577 12.9981,2.3607 12.9981,2.3607" id="Fill-8" fill="#DCB67A"></path>
            </g>
        </g>
    </g>
</svg>