<?xml version="1.0" encoding="utf-8"?>
<!-- Generator: Adobe Illustrator 22.1.0, SVG Export Plug-In . SVG Version: 6.00 Build 0)  -->
<svg version="1.1" id="layer_1" xmlns="http://www.w3.org/2000/svg" xmlns:xlink="http://www.w3.org/1999/xlink" x="0px" y="0px"
	 viewBox="0 0 16 16" style="enable-background:new 0 0 16 16;" xml:space="preserve">
<style type="text/css">
	.st0{fill:#252526;}
	.st1{fill:#C5C5C5;}
</style>
<g id="canvas">
	<rect class="st0" width="16" height="16"/>
</g>
<g id="outline">
	<polygon class="st0" points="11.4,7 13,7 13,3 7.4,3 9.4,1 4.6,1 0.6,5 4.6,9 3,9 3,13 8.6,13 6.6,15 11.4,15 15.4,11 	"/>
</g>
<g id="iconBg">
	<path class="st1" d="M14,11l-3,3H9l2-2H4v-2h7L9,8h2L14,11z M7,8L5,6h7V4H5l2-2H5L2,5l3,3H7z"/>
</g>
</svg>
