<svg width="16" height="16" viewBox="0 0 16 16" fill="none" xmlns="http://www.w3.org/2000/svg">
<path fill-rule="evenodd" clip-rule="evenodd" d="M13.5 10.5L10.8536 7.85353L11.5607 7.14642L14.5607 10.1464V10.8535L11.5607 13.8535L10.8536 13.1464L13.5 10.5Z" fill="#C5C5C5"/>
<path fill-rule="evenodd" clip-rule="evenodd" d="M2.50001 5.49996L5.14645 8.14641L4.43935 8.85352L1.43935 5.85352L1.43935 5.14641L4.43935 2.14641L5.14645 2.85352L2.50001 5.49996Z" fill="#C5C5C5"/>
<path d="M14 6V5H11.1513L10.645 6H14Z" fill="#C5C5C5"/>
<path d="M2 5V6H7.29009L7.78516 5H2Z" fill="#C5C5C5"/>
<path d="M14 11V10H8.64453L8.14453 11H14Z" fill="#C5C5C5"/>
<path d="M2 10V11H4.78906L5.28906 10H2Z" fill="#C5C5C5"/>
<path d="M4.90799 13L5.80199 13.448L10.802 3.448L9.90799 3L4.90799 13Z" fill="#C5C5C5"/>
</svg>
