<?xml version="1.0" encoding="utf-8"?>
<!-- Generator: Adobe Illustrator 22.1.0, SVG Export Plug-In . SVG Version: 6.00 Build 0)  -->
<svg version="1.1" id="Layer_1" xmlns="http://www.w3.org/2000/svg" xmlns:xlink="http://www.w3.org/1999/xlink" x="0px" y="0px"
	 viewBox="0 0 16 16" style="enable-background:new 0 0 16 16;" xml:space="preserve">
<style type="text/css">
	.st0{fill:#2D2D30;}
	.st1{fill:#C5C5C5;}
</style>
<g id="_x7B__PAGE_GRID__x7D_">
</g>
<g id="outline">
</g>
<g id="icon_x5F_bg">
	<polygon class="st0" points="10.8,0 6,0 8,2 2.4,2 2.4,6 8,6 6,8 10.8,8 14.8,4 	"/>
	<path class="st1" d="M10.4,5h-7V3h7l-2-2h2l3,3l-3,3h-2L10.4,5z"/>
	<polygon class="st0" points="6,16 10.8,16 8.8,14 14.4,14 14.4,10 8.8,10 10.8,8 6,8 2,12 	"/>
	<path class="st1" d="M6.4,11h7v2h-7l2,2h-2l-3-3l3-3h2L6.4,11z"/>
</g>
<g id="icon_x5F_fg">
</g>
<g id="not_x5F_bg">
</g>
<g id="not_x5F_fg">
</g>
</svg>
