<?xml version="1.0" encoding="utf-8"?>
<!-- Generator: Adobe Illustrator 22.1.0, SVG Export Plug-In . SVG Version: 6.00 Build 0)  -->
<svg version="1.1" id="图层_1" xmlns="http://www.w3.org/2000/svg" xmlns:xlink="http://www.w3.org/1999/xlink" x="0px" y="0px"
	 viewBox="0 0 16 16" style="enable-background:new 0 0 16 16;" xml:space="preserve">
<style type="text/css">
	.st0{fill:#2D2D30;}
	.st1{fill-rule:evenodd;clip-rule:evenodd;fill:#2B282E;}
	.st2{fill-rule:evenodd;clip-rule:evenodd;fill:#C5C5C5;}
	.st3{fill:#C5C5C5;}
	.st4{fill-rule:evenodd;clip-rule:evenodd;fill:#E8AB53;}
</style>
<path class="st0" d="M11,2c0.6,0,1,0.4,1,1s-0.4,1-1,1v1.2c1.2,0.4,2,1.5,2,2.8v6H5c-0.6,0-1-0.4-1-1V8c0-1.3,0.8-2.4,2-2.8V4
	C5.4,4,5,3.6,5,3s0.4-1,1-1H11 M11,1H6C4.9,1,4,1.9,4,3c0,0.7,0.3,1.3,0.8,1.6C3.7,5.4,3,6.6,3,8v5c0,1.1,0.9,2,2,2h8h1v-1V8
	c0-1.4-0.7-2.6-1.8-3.4C12.7,4.3,13,3.7,13,3C13,1.9,12.1,1,11,1L11,1z"/>
<rect x="2" y="8" class="st0" width="7" height="8"/>
<path class="st1" d="M11,5.2c1.2,0.4,2,1.5,2,2.8v6H5c-0.6,0-1-0.4-1-1V8c0-1.3,0.8-2.4,2-2.8V3h5V5.2z"/>
<g>
	<defs>
		<rect id="SVGID_1_" width="16" height="16"/>
	</defs>
	<clipPath id="SVGID_2_">
		<use xlink:href="#SVGID_1_"  style="overflow:visible;"/>
	</clipPath>
</g>
<g>
	<defs>
		<rect id="SVGID_3_" width="16" height="16"/>
	</defs>
	<clipPath id="SVGID_4_">
		<use xlink:href="#SVGID_3_"  style="overflow:visible;"/>
	</clipPath>
</g>
<g>
	<g>
		<defs>
			<rect id="SVGID_5_" width="16" height="16"/>
		</defs>
		<clipPath id="SVGID_6_">
			<use xlink:href="#SVGID_5_"  style="overflow:visible;"/>
		</clipPath>
	</g>
</g>
<path class="st2" d="M3,9v6h5v-4L6,9H3z"/>
<g>
	<path class="st3" d="M13,14H5c-0.6,0-1-0.4-1-1V8c0-1.3,0.8-2.4,2-2.8V3h5v2.2c1.2,0.4,2,1.6,2,2.8V14z M7,4v1.9L6.3,6.1
		C5.5,6.4,5,7.2,5,8v5h7V8c0-0.8-0.5-1.6-1.3-1.9v0L10,5.9V4H7z"/>
</g>
<g>
	<defs>
		<rect id="SVGID_7_" y="0" width="16" height="16"/>
	</defs>
	<clipPath id="SVGID_8_">
		<use xlink:href="#SVGID_7_"  style="overflow:visible;"/>
	</clipPath>
</g>
<path class="st4" d="M11,4H6C5.4,4,5,3.6,5,3s0.4-1,1-1h5c0.6,0,1,0.4,1,1S11.6,4,11,4"/>
<polygon class="st1" points="4,10 6,10 6,11 7,11 7,14 4,14 "/>
</svg>
