<?xml version="1.0" encoding="UTF-8" standalone="no"?>
<svg width="16px" height="16px" viewBox="0 0 16 16" version="1.1" xmlns="http://www.w3.org/2000/svg" xmlns:xlink="http://www.w3.org/1999/xlink">
    <!-- Generator: Sketch 48.2 (47327) - http://www.bohemiancoding.com/sketch -->
    <title>Package folder</title>
    <desc>Created with Sketch.</desc>
    <defs></defs>
    <g id="Page-1" stroke="none" stroke-width="1" fill="none" fill-rule="evenodd">
        <g id="Package-folder">
            <g id="Page-1" transform="translate(1.000000, 3.000000)">
                <path d="M13.0002,1.9998 L6.5082,1.9998 L7.0082,0.9998 L13.0002,0.9998 L13.0002,1.9998 Z M13.0002,-0.0002 L6.0082,-0.0002 L5.0082,1.9998 L2.0042,1.9998 C1.4542,1.9998 1.0042,2.4498 1.0042,2.9998 L1.0042,4.2628 L1.2262,4.1348 L2.2382,3.5488 L2.5822,4.4378 L2.9952,3.5438 L3.9592,4.1558 L5.5362,5.1558 L6.0002,5.4498 L6.0002,6.5348 L6.0002,6.9998 L6.0002,10.9998 L13.0002,10.9998 C13.5502,10.9998 14.0002,10.5498 14.0002,9.9998 L14.0002,0.9998 C14.0002,0.4498 13.5502,-0.0002 13.0002,-0.0002 Z" id="Fill-6" fill="#DCB67A"></path>
                <path d="M4.0002,7.9998 L4.0002,8.9998 L3.0002,8.9998 L3.0002,7.9998 L4.0002,7.9998 Z M3.0002,10.9998 L4.0002,10.9998 L4.0002,9.9998 L3.0002,9.9998 L3.0002,10.9998 Z M2.0002,8.9998 L1.0002,8.9998 L1.0002,7.9998 L2.0002,7.9998 L2.0002,8.9998 Z M2.0002,10.9998 L1.0002,10.9998 L1.0002,9.9998 L2.0002,9.9998 L2.0002,10.9998 Z M5.0002,5.9998 L3.4242,4.9998 L2.5002,6.9998 L1.7272,4.9998 L0.0002,5.9998 L1.5002,6.9998 L0.0002,6.9998 L0.0002,11.9998 L5.0002,11.9998 L5.0002,6.9998 L3.5002,6.9998 L5.0002,5.9998 Z" id="Fill-8" fill="#C5C5C5"></path>
            </g>
        </g>
    </g>
</svg>