<?xml version="1.0" encoding="utf-8"?>
<!-- Generator: Adobe Illustrator 22.1.0, SVG Export Plug-In . SVG Version: 6.00 Build 0)  -->
<svg version="1.1" id="图层_1" xmlns="http://www.w3.org/2000/svg" xmlns:xlink="http://www.w3.org/1999/xlink" x="0px" y="0px"
	 viewBox="0 0 16 16" style="enable-background:new 0 0 16 16;" xml:space="preserve">
<style type="text/css">
	.st0{fill:#2D2D30;}
	.st1{fill:#DCB67A;}
	.st2{fill:#C5C5C5;}
	.st3{fill:#2B282E;}
</style>
<polygon class="st0" points="6.4,2 5.4,4 1,4 1,7.9 0,8.4 0,16 7,16 7,15 16,15 16,2 "/>
<path class="st1" d="M7,3L6,5H2v2.3l0.2-0.1l1-0.6l0.3,0.9l0.5-1l1,0.6l1.6,1L7,8.4v1.1V10v4h8V3H7z"/>
<path class="st2" d="M6,9L4.4,8l-0.9,2L2.7,8L1,9l1.5,1H1v5h5v-5H4.5L6,9z"/>
<polygon class="st3" points="14,5 7.5,5 8,4 14,4 "/>
<rect x="2" y="13" class="st3" width="1" height="1"/>
<rect x="2" y="11" class="st3" width="1" height="1"/>
<rect x="4" y="13" class="st3" width="1" height="1"/>
<rect x="4" y="11" class="st3" width="1" height="1"/>
</svg>
