<?xml version="1.0" encoding="utf-8"?>
<!-- Generator: Adobe Illustrator 22.1.0, SVG Export Plug-In . SVG Version: 6.00 Build 0)  -->
<svg version="1.1" id="图层_1" xmlns="http://www.w3.org/2000/svg" xmlns:xlink="http://www.w3.org/1999/xlink" x="0px" y="0px"
	 viewBox="0 0 16 16" style="enable-background:new 0 0 16 16;" xml:space="preserve">
<style type="text/css">
	.st0{fill-rule:evenodd;clip-rule:evenodd;fill:#2D2D30;}
	.st1{fill-rule:evenodd;clip-rule:evenodd;fill:#F36406;}
	.st2{fill-rule:evenodd;clip-rule:evenodd;fill:#DCB67A;}
</style>
<g>
	<defs>
		<rect id="SVGID_1_" y="0" width="16" height="16"/>
	</defs>
	<clipPath id="SVGID_2_">
		<use xlink:href="#SVGID_1_"  style="overflow:visible;"/>
	</clipPath>
</g>
<polygon class="st0" points="6.4,2 5.4,4 1,4 1,15 16,15 16,2 15,2 15,1 12,1 12,2 "/>
<g>
	<defs>
		<rect id="SVGID_3_" y="0" width="16" height="16"/>
	</defs>
	<clipPath id="SVGID_4_">
		<use xlink:href="#SVGID_3_"  style="overflow:visible;"/>
	</clipPath>
</g>
<path class="st1" d="M13.6,5.5C13.9,5.3,14,4.9,14,4.3V2h-1v2.3c0,0.6-0.2,0.9-0.7,0.9c-0.2,0-0.4-0.1-0.6-0.2v0.8
	C11.9,5.9,12.1,6,12.4,6C12.9,6,13.3,5.8,13.6,5.5"/>
<g>
	<defs>
		<rect id="SVGID_5_" y="0" width="16" height="16"/>
	</defs>
	<clipPath id="SVGID_6_">
		<use xlink:href="#SVGID_5_"  style="overflow:visible;"/>
	</clipPath>
</g>
<path class="st2" d="M14.3,6.3C13.8,6.7,13.2,7,12.4,7c-0.3,0-0.7-0.1-1-0.2l-0.7-0.2V5.9V5l0,0H7.5L8,4h4V3H7L6,5H2v9h13V4.3
	c0,0,0,0,0,0C15,5.1,14.8,5.8,14.3,6.3z"/>
</svg>
